<?xml version="1.0" encoding="utf-8"?>
<svg xmlns="http://www.w3.org/2000/svg" xmlns:xlink="http://www.w3.org/1999/xlink" version= "1.1" width="4000px" height="4000px" viewBox="-1460 -847 4000 4000">
<rect x="-1460" y="-847" width="4000" height="4000" fill="rgb(254,254,254)"/>
<g id="layer1">
<g style="fill:rgb(0,0,0); fill-opacity:1.0; stroke-linejoin: miter">
<path d="M2465.7888,1135.8752L2465.7888,1135.8752C2465.7888,2200.7104,1602.5693,3063.93,537.73425,3063.93L537.73425,3063.93C-527.1008,3063.93,-1390.3204,2200.7104,-1390.3204,1135.8752L-1390.3204,1135.8752C-1390.3204,71.04004,-527.1008,-792.1795,537.73425,-792.1795L537.73425,-792.1795C1602.5692,-792.1795,2465.7888,71.03992,2465.7888,1135.8752L2465.7888,1135.8752 M2394.7405,1135.8752L2394.7405,1135.8752C2394.7405,110.27881,1563.3303,-721.13116,537.73425,-721.13116L537.73425,-721.13116C-487.86206,-721.13116,-1319.2721,110.27881,-1319.2721,1135.8752L-1319.2721,1135.8752C-1319.2721,2161.4717,-487.86182,2992.8816,537.73425,2992.8816L537.73425,2992.8816C1563.3303,2992.8816,2394.7405,2161.4717,2394.7405,1135.8752 Z"/>
</g>
<g style="fill:rgb(0,0,0); fill-opacity:1.0; stroke-linejoin: miter">
<path d="M-21.67538,-489.17422L-21.67538,-489.17422L-21.67538,-489.17422L-21.67538,-489.17422L-21.67538,-489.17422L-21.67538,-489.17422L-21.67538,-489.17422L-21.67538,-489.17422L-21.67538,-489.17422L-21.67538,-489.17422 M-21.67538,-477.843L-21.67538,-477.843L-21.67538,-477.843L-21.67538,-477.843L-21.67538,-477.843L-21.67538,-477.843L-21.67538,-477.843L-21.67538,-477.843L-21.67538,-477.843 Z"/>
</g>
<g style="fill:rgb(0,0,0); fill-opacity:1.0; stroke-linejoin: miter">
</g>
<g style="fill:rgb(0,0,0); fill-opacity:1.0; stroke-linejoin: miter">
</g>
<g style="fill:rgb(0,0,0); fill-opacity:1.0; stroke-linejoin: miter">
</g>
<g style="fill:rgb(0,0,0); fill-opacity:1.0; stroke-linejoin: miter">
</g>
<g style="fill:rgb(0,0,0); fill-opacity:1.0; stroke-linejoin: miter">
<path d="M159.1092,-616.29584L159.01938,-615.33704L160.11794,-616.2003Q159.61356,-616.2481,159.1092,-616.29584 Z"/>
</g>
<g style="fill:rgb(0,0,0); fill-opacity:1.0; stroke-linejoin: miter">
</g>
<g style="fill:rgb(0,0,0); fill-opacity:1.0; stroke-linejoin: miter">
</g>
<g style="fill:rgb(0,0,0); fill-opacity:1.0; stroke-linejoin: miter">
</g>
<g style="fill:rgb(0,0,0); fill-opacity:1.0; stroke-linejoin: miter">
</g>
<g style="fill:rgb(0,0,0); fill-opacity:1.0; stroke-linejoin: miter">
</g>
<g style="fill:rgb(0,0,0); fill-opacity:1.0; stroke-linejoin: miter">
</g>
<g style="fill:rgb(0,0,0); fill-opacity:1.0; stroke-linejoin: miter">
</g>
<g style="fill:rgb(0,0,0); fill-opacity:1.0; stroke-linejoin: miter">
</g>
<g style="fill:rgb(0,0,0); fill-opacity:1.0; stroke-linejoin: miter">
</g>
<g style="fill:rgb(0,0,0); fill-opacity:1.0; stroke-linejoin: miter">
</g>
<g style="fill:rgb(0,0,0); fill-opacity:1.0; stroke-linejoin: miter">
</g>
<g style="fill:rgb(0,0,0); fill-opacity:1.0; stroke-linejoin: miter">
</g>
<g style="fill:rgb(0,0,0); fill-opacity:1.0; stroke-linejoin: miter">
</g>
<g style="fill:rgb(0,0,0); fill-opacity:1.0; stroke-linejoin: miter">
</g>
<g style="fill:rgb(0,0,0); fill-opacity:1.0; stroke-linejoin: miter">
</g>
<g style="fill:rgb(0,0,0); fill-opacity:1.0; stroke-linejoin: miter">
</g>
<g style="fill:rgb(0,0,0); fill-opacity:1.0; stroke-linejoin: miter">
</g>
<g style="fill:rgb(0,0,0); fill-opacity:1.0; stroke-linejoin: miter">
</g>
<g style="fill:rgb(0,0,0); fill-opacity:1.0; stroke-linejoin: miter">
</g>
<g style="fill:rgb(0,0,0); fill-opacity:1.0; stroke-linejoin: miter">
</g>
<g style="fill:rgb(0,0,0); fill-opacity:1.0; stroke-linejoin: miter">
</g>
<g style="fill:rgb(0,0,0); fill-opacity:1.0; stroke-linejoin: miter">
</g>
<g style="fill:rgb(0,0,0); fill-opacity:1.0; stroke-linejoin: miter">
</g>
<g style="fill:rgb(0,0,0); fill-opacity:1.0; stroke-linejoin: miter">
</g>
<g style="fill:rgb(0,0,0); fill-opacity:1.0; stroke-linejoin: miter">
</g>
<g>
<g>
<g style="fill:rgb(0,0,0); fill-opacity:1.0; stroke-linejoin: miter">
<path d="M607.83307,626.2252Q636.502,626.6053,676.9905,635.7031Q863.93866,677.7133,930.67145,755.2943Q997.40436,832.8753,965.0877,976.681Q948.00653,1052.6934,913.4045,1101.0284Q878.3416,1151.4182,821.1884,1175.2633Q763.0813,1198.2113,681.27484,1197.1262Q679.725,1197.1057,678.1666,1197.0764Q592.2984,1195.0452,475.19904,1168.7312Q444.38342,1161.8062,432.98022,1154.9276Q421.57785,1148.0492,422.5471,1124.5281L474.2536,894.4386Q496.87457,793.7751,513.2406,730.55066Q532.1224,665.73456,563.0302,633.8345Q579.76935,625.8531,607.83307,626.2252 Z M419.83398,1271.6978Q434.9063,1271.898,459.41022,1277.4047Q588.8353,1306.4893,673.01874,1344.8295Q758.79486,1385.686,803.4372,1436.7223Q849.67194,1490.274,861.39795,1553.3367Q872.66266,1618.4532,855.5806,1694.4653Q832.08215,1779.8259,799.74274,1837.3021Q764.8874,1896.3712,714.56647,1928.2247Q664.2457,1960.0792,595.4816,1968.3662Q564.5572,1971.7827,529.156,1971.313Q483.48764,1970.707,430.37003,1963.6333Q362.57602,1948.3984,329.29062,1923.6532Q293.95056,1898.4465,283.77155,1857.3136Q274.05368,1814.1255,285.8489,1752.0326Q296.05182,1687.4237,317.2885,1592.9231L385.614,1288.8768Q393.41605,1273.3655,408.72037,1272.4882Q413.42422,1271.6127,419.83398,1271.6978 Z M145.69438,378.1946L124.91944,470.64108L145.4632,475.25784Q207.09402,489.1067,236.27065,512.9281Q265.44684,536.74915,273.5721,577.42114Q281.2355,620.1474,269.44003,682.23944Q259.23737,746.848,238.00098,841.3493L81.03613,1539.8323Q59.79974,1634.3335,43.895756,1695.5024Q25.475536,1758.2643,0.730837,1791.5493Q-26.52998,1826.4279,-67.20183,1834.5525Q-82.78499,1837.3477,-101.702866,1837.0969Q-134.65385,1836.6597,-177.7219,1826.9816L-198.49644,1919.4277L477.38974,2071.3145Q560.2279,2089.9297,637.0268,2090.9492Q661.1723,2091.2693,684.72015,2089.8506Q783.1686,2083.9187,863.4284,2043.686Q943.6878,2003.4523,1000.05646,1925.4789Q1058.48,1847.9667,1084.7946,1730.8676Q1117.1112,1587.0609,1065.5205,1480.5101Q1013.93085,1373.9598,885.52014,1301.9412Q1003.4279,1276.6431,1080.8021,1201.2306Q1160.2312,1126.2811,1185.1609,1015.3448Q1225.7875,834.5595,1114.8733,703.8879Q1002.36774,570.7004,755.8416,515.30316L145.69438,378.1946 Z"/>
</g>
</g>
<g style="fill:rgb(0,0,0); fill-opacity:1.0; stroke-linejoin: miter">
<path d="M120.08368,1897.147L109.390526,1950.9303L66.43822,2166.9631L55.744827,2220.7473L163.31221,2242.1348L174.00587,2188.351L216.95842,1972.3177L227.65158,1918.5334L120.08368,1897.147 Z"/>
</g>
<g style="fill:rgb(0,0,0); fill-opacity:1.0; stroke-linejoin: miter">
<path d="M337.10638,1998.6543L327.2904,2052.6052L300.06595,2202.241L290.25018,2256.1921L398.1521,2275.8235L407.9681,2221.8728L435.19263,2072.2378L445.0088,2018.2865L337.10638,1998.6543 Z"/>
</g>
<g style="fill:rgb(0,0,0); fill-opacity:1.0; stroke-linejoin: miter">
<path d="M482.34534,193.84692L467.89212,251.97603L422.9022,432.91272L408.44876,491.04135L524.7056,519.94806L539.1589,461.81943L584.14905,280.88113L598.6028,222.75345L482.34534,193.84692 Z"/>
</g>
<g style="fill:rgb(0,0,0); fill-opacity:1.0; stroke-linejoin: miter">
<path d="M724.5255,243.15802L711.1621,301.54697L675.54425,457.1796L662.1814,515.56903L778.95966,542.2937L792.3225,483.90518L827.9405,328.27246L841.3038,269.88245L724.5255,243.15802 Z"/>
</g>
</g>
<g style="fill:rgb(0,0,0); fill-opacity:1.0; stroke-linejoin: miter">
</g>
<g style="fill:rgb(0,0,0); fill-opacity:1.0; stroke-linejoin: miter">
</g>
<g style="fill:rgb(0,0,0); fill-opacity:1.0; stroke-linejoin: miter">
</g>
<g style="fill:rgb(0,0,0); fill-opacity:1.0; stroke-linejoin: miter">
</g>
<g style="fill:rgb(0,0,0); fill-opacity:1.0; stroke-linejoin: miter">
</g>
<g style="fill:rgb(0,0,0); fill-opacity:1.0; stroke-linejoin: miter">
</g>
<g style="fill:rgb(0,0,0); fill-opacity:1.0; stroke-linejoin: miter">
</g>
<g style="fill:rgb(0,0,0); fill-opacity:1.0; stroke-linejoin: miter">
</g>
<g style="fill:rgb(0,0,0); fill-opacity:1.0; stroke-linejoin: miter">
</g>
</g>
</svg>