<?xml version="1.0" encoding="utf-8"?>
<svg xmlns="http://www.w3.org/2000/svg" xmlns:xlink="http://www.w3.org/1999/xlink" version= "1.1" width="487px" height="115px" viewBox="248 769 487 115">
<rect x="248" y="769" width="487" height="115" fill="rgb(114,50,255)"/>
<g id="layer1">
<g>
<g style="fill:rgb(254,254,254); fill-opacity:1.0; stroke-linejoin: miter">
<path d="M355.7,820.0333Q356.1,821.4333,356.4,822.73334Q356.7,824.0333,357.0,825.23334L354.5,825.23334Q354.7,824.0333,355.1,822.73334Q355.5,821.4333,355.7,820.0333 Z M476.1,820.0333Q476.5,821.4333,476.8,822.73334Q477.1,824.0333,477.40002,825.23334L474.90002,825.23334Q475.1,824.0333,475.5,822.73334Q475.9,821.4333,476.1,820.0333 Z M579.9,820.0333Q580.3,821.4333,580.6,822.73334Q580.9,824.0333,581.2,825.23334L578.69995,825.23334Q578.9,824.0333,579.3,822.73334Q579.7,821.4333,579.9,820.0333 Z M354.5,807.73334Q354.3,807.73334,354.1,808.5333Q353.1,812.3333,352.1,816.9333Q351.2,821.5333,350.2,825.3333Q350.0,826.1333,350.2,826.6333Q350.4,827.1333,351.0,827.1333L358.2,827.1333Q358.7,827.1333,359.0,826.6333Q359.2,826.1333,359.0,825.3333Q357.90002,821.5333,356.9,816.9333Q356.0,812.3333,355.0,808.5333Q354.8,807.73334,354.5,807.73334 Z M474.90002,807.73334Q474.7,807.73334,474.5,808.5333Q473.5,812.3333,472.5,816.9333Q471.6,821.5333,470.6,825.3333Q470.40002,826.1333,470.6,826.6333Q470.80002,827.1333,471.40002,827.1333L478.60004,827.1333Q479.1,827.1333,479.40002,826.6333Q479.60004,826.1333,479.40002,825.3333Q478.30002,821.5333,477.30002,816.9333Q476.40002,812.3333,475.40002,808.5333Q475.2,807.73334,474.90002,807.73334 Z M578.69995,807.73334Q578.5,807.73334,578.3,808.5333Q577.3,812.3333,576.3,816.9333Q575.4,821.5333,574.4,825.3333Q574.2,826.1333,574.4,826.6333Q574.6,827.1333,575.2,827.1333L582.4,827.1333Q582.9,827.1333,583.2,826.6333Q583.4,826.1333,583.2,825.3333Q582.1,821.5333,581.1,816.9333Q580.2,812.3333,579.2,808.5333Q579.0,807.73334,578.69995,807.73334 Z M292.1058,829.73627Q294.9028,831.1345,297.6,832.3333Q300.3,833.5333,303.0,834.9333L294.8,834.9333L294.8,834.1333Q294.8,832.73334,294.1,831.8333Q293.5,830.9333,292.5,830.5333Q292.30142,829.9376,292.10287,829.73627 Z M553.40594,853.6961L553.40594,853.6961Q553.4592,853.8313,553.5,853.9333Q553.54285,854.1476,553.3102,854.23334L553.30505,854.23334Q553.32245,854.04346,553.4,853.73334Q553.4,853.71533,553.40045,853.6961 Z M509.63605,786.01666Q509.71664,786.01666,509.8,786.0333Q512.7,786.6333,515.7,787.0333Q518.6,787.4333,521.5,787.6333Q522.5,787.8333,522.5,789.73334Q522.4,794.1333,522.3,798.5333Q522.2,802.9333,522.1,807.4333Q522.1,808.23334,522.3,808.3333Q522.32855,808.3476,522.3592,808.3476Q522.54285,808.3476,522.80005,807.8333Q525.2,803.23334,527.6,798.7333Q529.9,794.23334,532.0,789.5333Q532.8,788.23334,533.9,788.0333Q541.8,787.8333,549.4,786.5333Q549.84,786.4533,550.10406,786.4533Q550.5,786.4533,550.5,786.6333Q550.5,786.8333,550.3,787.4333Q550.2,787.9333,549.9,788.5333Q546.5,796.23334,542.7,803.23334Q538.9,810.23334,534.9,817.0333Q534.19995,818.3333,534.9,819.73334Q539.7,827.4333,544.3,835.3333Q548.4412,842.4454,552.0151,850.36786L552.0096,850.36786Q551.8522,851.2011,551.69995,852.0333Q551.6,852.4333,551.6,852.8333Q551.6,853.23334,551.6,853.5333Q551.6,853.8474,551.5383,854.0999L551.5383,854.0999Q547.961,853.3909,544.3,852.9333Q540.4,852.5333,536.4,852.3333Q535.30005,852.1333,534.6,850.8333Q531.8,845.7333,528.80005,840.8333Q525.9,835.9333,522.9,830.9333Q522.5741,830.48517,522.3809,830.48517Q522.1,830.48517,522.1,831.4333Q522.2,836.23334,522.3,841.0333Q522.3,845.7333,522.5,850.5333Q522.5,852.4333,521.5,852.6333Q518.6,852.8333,515.6,853.23334Q512.7,853.6333,509.8,854.23334Q509.72858,854.2476,509.6592,854.2476Q509.2429,854.2476,508.9,853.73334Q508.5,853.23334,508.40002,852.3333Q505.8,820.1333,508.40002,787.9333Q508.5,787.0333,508.9,786.4333Q509.23334,786.01666,509.63605,786.01666 Z M389.43884,786.01666Q389.51666,786.01666,389.6,786.0333Q392.9,786.5333,396.2,786.9333Q399.40002,787.3333,402.59998,787.6333Q403.1,787.6333,403.5,788.1333Q403.9,788.6333,404.1,789.4333Q406.40002,799.0333,409.1,808.23334Q411.7,817.4333,414.4,826.7333Q414.5,827.1333,414.6,827.5333Q414.7,827.8333,414.8,828.0333Q414.9,828.3333,415.0,828.5333Q415.0,828.3333,415.09998,828.0333Q415.2,827.8333,415.3,827.4333Q415.3,827.1333,415.5,826.7333Q418.3,817.4333,421.0,808.23334Q423.6,799.0333,425.8,789.4333Q426.1,787.73334,427.4,787.5333Q433.7,787.1333,440.0,786.0333Q440.07144,786.01904,440.14084,786.01904Q440.55716,786.01904,440.90002,786.5333Q441.3,787.0333,441.4,787.9333Q444.40002,820.1333,441.4,852.3333Q441.3,853.23334,440.90002,853.8333Q440.56665,854.25,440.16385,854.25Q440.0833,854.25,440.0,854.23334Q437.2,853.73334,434.40002,853.3333Q431.7,853.0333,428.9,852.8333Q428.40002,852.8333,428.1,852.2333Q427.8,851.6333,427.8,850.8333Q428.1,845.1333,428.3,839.6333Q428.40002,834.1333,428.5,828.4333Q428.5,827.6333,428.40002,827.5333Q428.3,827.5333,428.1,828.3333Q426.4,834.0333,424.8,839.5333Q423.3,845.0333,421.6,850.5333Q421.1,852.2333,420.0,852.2333Q417.5,852.1333,414.975,852.1333Q412.45,852.1333,409.90002,852.2333Q408.8,852.2333,408.3,850.5333Q406.7,845.0333,405.1,839.4333Q403.5,833.9333,401.9,828.3333Q401.72223,827.6222,401.54443,827.6222Q401.52222,827.6222,401.5,827.6333Q401.4,827.6333,401.4,828.4333Q401.5,839.6333,402.0,850.73334Q402.2,852.6333,401.1,852.8333Q398.2,853.0333,395.3,853.4333Q392.5,853.73334,389.6,854.23334Q389.5286,854.2476,389.45923,854.2476Q389.04288,854.2476,388.7,853.73334Q388.4,853.23334,388.3,852.3333Q385.1,820.1333,388.3,787.9333Q388.4,787.0333,388.8,786.4333Q389.05,786.01666,389.43884,786.01666 Z M613.6389,786.01666Q613.7167,786.01666,613.80005,786.0333Q617.1,786.5333,620.4,786.9333Q623.60004,787.3333,626.80005,787.6333Q627.30005,787.6333,627.7,788.1333Q628.1,788.6333,628.30005,789.4333Q630.6,799.0333,633.30005,808.23334Q635.9,817.4333,638.6,826.7333Q638.7,827.1333,638.80005,827.5333Q638.9,827.8333,639.0,828.0333Q639.10004,828.3333,639.2,828.5333Q639.2,828.3333,639.30005,828.0333Q639.4,827.8333,639.5,827.4333Q639.5,827.1333,639.7,826.7333Q642.5,817.4333,645.2,808.23334Q647.80005,799.0333,650.0,789.4333Q650.30005,787.73334,651.60004,787.5333Q657.9,787.1333,664.2,786.0333Q664.2715,786.01904,664.3409,786.01904Q664.7572,786.01904,665.10004,786.5333Q665.5,787.0333,665.6,787.9333Q668.6,820.1333,665.6,852.3333Q665.5,853.23334,665.10004,853.8333Q664.76666,854.25,664.3639,854.25Q664.2833,854.25,664.2,854.23334Q661.4,853.73334,658.6,853.3333Q655.9,853.0333,653.1,852.8333Q652.60004,852.8333,652.30005,852.2333Q652.0,851.6333,652.0,850.8333Q652.30005,845.1333,652.5,839.6333Q652.60004,834.1333,652.7,828.4333Q652.7,827.6333,652.60004,827.5333Q652.5,827.5333,652.30005,828.3333Q650.60004,834.0333,649.0,839.5333Q647.5,845.0333,645.80005,850.5333Q645.30005,852.2333,644.2,852.2333Q641.7,852.1333,639.175,852.1333Q636.65,852.1333,634.1,852.2333Q633.0,852.2333,632.5,850.5333Q630.9,845.0333,629.30005,839.4333Q627.7,833.9333,626.1,828.3333Q625.92224,827.6222,625.74445,827.6222Q625.7222,827.6222,625.7,827.6333Q625.60004,827.6333,625.60004,828.4333Q625.7,839.6333,626.2,850.73334Q626.4,852.6333,625.30005,852.8333Q622.4,853.0333,619.5,853.4333Q616.7,853.73334,613.80005,854.23334Q613.72864,854.2476,613.65924,854.2476Q613.2429,854.2476,612.9,853.73334Q612.6,853.23334,612.5,852.3333Q609.30005,820.1333,612.5,787.9333Q612.6,787.0333,613.0,786.4333Q613.25,786.01666,613.6389,786.01666 Z M317.03748,786.3958Q318.875,786.3958,320.1,788.23334Q321.5,790.23334,321.8,794.4333Q322.0,797.4333,322.1,800.4333Q322.2,803.3333,322.3,806.2333Q322.4,807.1333,322.1,807.73334Q321.8,808.23334,321.3,808.3333Q315.0,808.8333,308.9,808.9333Q307.7,808.9333,307.7,807.0333L307.7,805.7333Q307.6,804.9333,307.2,804.4333Q306.9,803.9333,306.4,803.9333Q302.84998,804.0333,299.32498,804.0333Q295.8,804.0333,292.3,803.9333Q291.2,803.9333,291.0,805.1333Q291.0,805.6333,291.4,806.2333Q291.7,806.8333,292.2,807.0333Q299.0,810.5333,305.9,814.23334Q312.8,817.8333,319.7,821.3333Q321.4,822.1333,322.0,823.9333Q322.6,825.6333,322.5,828.3333Q322.4,832.8333,322.2,837.23334Q322.1,841.5333,321.8,846.0333Q321.5,850.23334,320.0,852.4333Q318.81537,854.29486,317.05792,854.29486Q316.73843,854.29486,316.4,854.23334Q307.84998,852.8833,299.32498,852.8833Q290.8,852.8833,282.3,854.23334Q281.96155,854.29486,281.63968,854.29486Q279.86926,854.29486,278.6,852.4333Q277.1,850.23334,276.9,846.0333Q276.4,839.4333,276.3,832.9333Q276.3,831.0333,277.5,830.8333Q280.6,830.6333,283.7,830.5333Q286.7,830.4333,289.8,830.3333Q291.0,830.3333,291.0,832.23334L291.0,835.0333Q291.2,836.9333,292.3,836.9333Q295.8,836.7833,299.32498,836.7833Q302.84998,836.7833,306.4,836.9333Q307.6,836.9333,307.6,835.5333Q307.7,835.0333,307.3,834.4333Q307.0,833.9333,306.5,833.7333Q299.7,830.1333,292.7,826.9333Q285.8,823.73334,278.9,820.1333Q277.2,819.3333,276.6,817.6333Q276.1,816.0333,276.2,813.3333Q276.3,808.8333,276.5,804.0333Q276.7,799.23334,276.9,794.73334Q277.1,790.5333,278.6,788.3333Q279.86923,786.4718,281.63962,786.4718Q281.96152,786.4718,282.3,786.5333Q290.79266,787.85876,299.18893,787.85876Q307.8963,787.85876,316.5,786.4333Q316.775,786.3958,317.03748,786.3958 Z M693.14935,786.3637Q693.9,786.3637,693.9,787.9333Q694.4,804.0333,694.4,820.3333Q694.4,836.6333,693.9,852.8333Q693.9,853.6333,693.6,854.0333Q693.39996,854.3,693.11115,854.3Q692.9667,854.3,692.80005,854.23334Q692.2,853.8333,690.5,853.6333Q688.80005,853.5333,686.9,853.5333Q685.1,853.5333,683.4,853.73334Q681.7,853.8333,681.1,854.23334Q680.9333,854.3,680.7778,854.3Q680.4667,854.3,680.2,854.0333Q679.9,853.6333,679.9,852.8333Q679.5,836.6333,679.5,820.3333Q679.5,804.0333,679.9,787.9333Q679.9,787.0333,680.30005,786.6333Q680.5,786.36664,680.7889,786.36664Q680.9333,786.36664,681.1,786.4333Q681.7,786.8333,683.4,787.0333Q685.1,787.23334,687.0,787.23334Q688.80005,787.23334,690.5,787.0333Q692.2,786.8333,692.80005,786.4333Q692.99133,786.3637,693.14935,786.3637 Z M584.9,786.1333Q586.0,786.1333,586.7,787.8333Q589.1,795.3333,591.6,803.23334Q594.0,811.0333,596.3,819.23334Q598.5,827.3333,600.5,835.6333Q602.5,843.93335,604.0,852.3333Q604.2,853.3333,604.2,853.73334L604.2,854.3333Q604.2,854.36664,604.08887,854.36664Q603.86664,854.36664,603.2,854.23334Q596.9,853.23334,590.9,852.73334Q589.8,852.5333,589.30005,850.8333Q589.1,849.4333,588.8,848.1333Q588.6,846.9333,588.4,845.5333Q588.19995,844.73334,587.7,844.23334Q587.30005,843.73334,586.8,843.73334Q582.75,843.5333,578.75,843.5333Q574.75,843.5333,570.8,843.73334Q570.3,843.73334,569.8,844.23334Q569.4,844.73334,569.2,845.5333Q568.9,846.9333,568.6,848.23334Q568.30005,849.4333,568.1,850.8333Q567.6,852.5333,566.5,852.73334Q561.6398,853.0628,556.57605,853.8674L556.57605,853.8674Q556.4951,853.6067,556.4,853.3333Q555.3565,850.96625,554.2805,848.68994L554.275,848.68994Q555.5343,842.131,557.1,835.6333Q559.1,827.3333,561.4,819.1333Q563.6,811.0333,566.1,803.1333Q568.5,795.3333,570.9,787.8333Q571.6,786.1333,572.6,786.1333Q575.7,786.2833,578.775,786.2833Q581.85004,786.2833,584.9,786.1333 Z M360.7,786.1333Q361.8,786.1333,362.5,787.8333Q364.9,795.3333,367.4,803.23334Q369.8,811.0333,372.1,819.23334Q374.3,827.3333,376.3,835.6333Q378.3,843.93335,379.8,852.3333Q380.0,853.3333,380.0,853.73334L380.0,854.3333Q380.0,854.36664,379.88885,854.36664Q379.6666,854.36664,379.0,854.23334Q372.7,853.23334,366.7,852.73334Q365.6,852.5333,365.1,850.8333Q364.9,849.4333,364.6,848.1333Q364.4,846.9333,364.2,845.5333Q364.0,844.73334,363.5,844.23334Q363.1,843.73334,362.6,843.73334Q358.55,843.5333,354.55,843.5333Q350.55,843.5333,346.6,843.73334Q346.1,843.73334,345.6,844.23334Q345.2,844.73334,345.0,845.5333Q344.7,846.9333,344.4,848.23334Q344.1,849.4333,343.9,850.8333Q343.4,852.5333,342.3,852.73334Q336.4,853.1333,330.2,854.23334Q329.8,854.3333,329.4,854.43335Q329.1,854.43335,329.1,854.3333Q329.1,854.1333,329.2,853.73334Q329.2,853.3333,329.4,852.3333Q330.9,843.93335,332.9,835.6333Q334.9,827.3333,337.2,819.1333Q339.4,811.0333,341.9,803.1333Q344.3,795.3333,346.7,787.8333Q347.4,786.1333,348.4,786.1333Q351.5,786.2833,354.575,786.2833Q357.65002,786.2833,360.7,786.1333 Z M481.1,786.1333Q482.2,786.1333,482.90002,787.8333Q485.30002,795.3333,487.80002,803.23334Q490.2,811.0333,492.5,819.23334Q494.7,827.3333,496.7,835.6333Q498.7,843.93335,500.2,852.3333Q500.40002,853.3333,500.40002,853.73334L500.40002,854.3333Q500.40002,854.36664,500.28888,854.36664Q500.06662,854.36664,499.40002,854.23334Q493.10004,853.23334,487.10004,852.73334Q486.0,852.5333,485.5,850.8333Q485.30002,849.4333,485.0,848.1333Q484.80002,846.9333,484.60004,845.5333Q484.40002,844.73334,483.90002,844.23334Q483.50003,843.73334,483.0,843.73334Q478.95,843.5333,474.95,843.5333Q470.95,843.5333,467.0,843.73334Q466.5,843.73334,466.0,844.23334Q465.6,844.73334,465.40002,845.5333Q465.1,846.9333,464.80002,848.23334Q464.5,849.4333,464.3,850.8333Q463.8,852.5333,462.7,852.73334Q456.80002,853.1333,450.6,854.23334Q450.2,854.3333,449.8,854.43335Q449.5,854.43335,449.5,854.3333Q449.5,854.1333,449.6,853.73334Q449.6,853.3333,449.8,852.3333Q451.3,843.93335,453.30002,835.6333Q455.30002,827.3333,457.60004,819.1333Q459.80002,811.0333,462.3,803.1333Q464.7,795.3333,467.10004,787.8333Q467.80002,786.1333,468.80002,786.1333Q471.90002,786.2833,474.975,786.2833Q478.05,786.2833,481.1,786.1333 Z M440.14377,784.0833Q439.92502,784.0833,439.7,784.1333Q433.0,785.23334,427.1,785.6333Q426.0,785.8333,425.0,786.7333Q424.1,787.6333,423.90002,789.0333Q422.2,796.9333,420.0,804.6333Q417.90002,812.23334,415.6,819.8333Q413.5,812.6333,411.5,805.4333Q409.5,798.3333,407.8,790.8333Q407.6,789.8333,406.9,789.0333Q406.2,788.23334,405.5,787.9333Q404.3,785.9333,402.8,785.73334Q399.6,785.5333,396.3,785.0333Q393.0,784.6333,389.80002,784.1333Q388.7,784.1333,387.6,785.1333Q386.6,786.1333,386.4,787.73334Q385.6,795.5333,385.2,803.9333Q384.9,812.3333,384.9,820.1333Q384.9,827.9333,385.3,836.3333Q385.6,844.73334,386.4,852.5333Q386.6,853.73334,387.3,854.6333Q387.9,855.43335,388.8,855.8333Q389.80002,858.0333,391.7,858.0333Q394.6,857.5333,397.4,857.1333Q400.2,856.8333,403.1,856.5333Q404.2,856.3333,405.0,855.1333Q405.7,853.9333,405.8,852.5333Q405.7,851.3333,405.6,850.1333Q405.6,849.03906,405.50104,847.74695L405.5051,847.74695Q405.80255,848.54095,406.1,849.4333Q406.3,850.3333,406.5,851.1333Q407.2,853.1333,408.8,853.9333Q409.3,854.8333,410.2,855.43335Q411.0,856.0333,411.8,856.0333Q413.0,856.0333,414.3,855.93335L416.90002,855.93335Q418.2,855.93335,419.40002,856.0333L421.90002,856.0333Q422.90002,856.0333,423.90002,855.1333Q424.90002,854.3333,425.3,853.0333L425.9,850.9333Q425.9,852.2333,426.5,853.23334Q427.1,854.23334,428.2,854.5333Q428.5,855.3333,429.2,855.93335Q429.8,856.5333,430.6,856.5333Q433.40002,856.8333,436.1,857.23334Q438.8,857.5333,441.6,858.0333Q441.80002,858.0641,441.9953,858.0641Q443.06924,858.0641,444.0,857.1333Q445.0,856.0333,445.1,854.43335Q445.80002,846.6333,446.3,838.3333Q446.7,830.0333,446.7,822.0333Q446.7,814.0333,446.2,805.7333Q445.80002,797.5333,445.1,789.6333Q445.0,788.4333,444.40002,787.4333Q443.8,786.5333,442.8,786.2333Q442.3,785.1333,441.4,784.5333Q440.8,784.0833,440.14377,784.0833 Z M664.34375,784.0833Q664.125,784.0833,663.9,784.1333Q657.2,785.23334,651.30005,785.6333Q650.2,785.8333,649.2,786.7333Q648.30005,787.6333,648.1,789.0333Q646.4,796.9333,644.2,804.6333Q642.1,812.23334,639.80005,819.8333Q637.7,812.6333,635.7,805.4333Q633.7,798.3333,632.0,790.8333Q631.8,789.8333,631.1,789.0333Q630.4,788.23334,629.7,787.9333Q628.5,785.9333,627.0,785.73334Q623.80005,785.5333,620.5,785.0333Q617.2,784.6333,614.0,784.1333Q612.9,784.1333,611.80005,785.1333Q610.80005,786.1333,610.6,787.73334Q609.80005,795.5333,609.4,803.9333Q609.1,812.3333,609.1,820.1333Q609.1,827.9333,609.5,836.3333Q609.80005,844.73334,610.6,852.5333Q610.80005,853.73334,611.5,854.6333Q612.1,855.43335,613.0,855.8333Q614.0,858.0333,615.9,858.0333Q618.80005,857.5333,621.6,857.1333Q624.4,856.8333,627.30005,856.5333Q628.4,856.3333,629.2,855.1333Q629.9,853.9333,630.0,852.5333Q629.9,851.3333,629.80005,850.1333Q629.80005,849.0423,629.70166,847.75446L629.70795,847.75446Q630.00397,848.5452,630.30005,849.4333Q630.5,850.3333,630.7,851.1333Q631.4,853.1333,633.0,853.9333Q633.5,854.8333,634.4,855.43335Q635.2,856.0333,636.0,856.0333Q637.2,856.0333,638.5,855.93335L641.1,855.93335Q642.4,855.93335,643.6,856.0333L646.1,856.0333Q647.1,856.0333,648.1,855.1333Q649.1,854.3333,649.5,853.0333L650.1,850.9333Q650.1,852.2333,650.7,853.23334Q651.30005,854.23334,652.4,854.5333Q652.7,855.3333,653.4,855.93335Q654.0,856.5333,654.80005,856.5333Q657.6,856.8333,660.30005,857.23334Q663.0,857.5333,665.80005,858.0333Q666.00006,858.0641,666.1953,858.0641Q667.2692,858.0641,668.2,857.1333Q669.2,856.0333,669.3,854.43335Q670.0,846.6333,670.5,838.3333Q670.9,830.0333,670.9,822.0333Q670.9,814.0333,670.4,805.7333Q670.0,797.5333,669.3,789.6333Q669.2,788.4333,668.6,787.4333Q668.0,786.5333,667.0,786.2333Q666.5,785.1333,665.6,784.5333Q665.0,784.0833,664.34375,784.0833 Z M281.63705,784.5274Q279.22943,784.5274,277.5,786.8333Q275.4,789.6333,275.0,794.6333Q274.8,799.1333,274.6,804.0333Q274.4,808.8333,274.3,813.3333Q274.2,816.3333,274.9,818.3333Q275.5,820.3333,277.4,821.4333Q278.4,823.0333,280.0,823.73334L279.9,823.73334Q282.2,824.9333,284.6,826.1333Q287.0,827.3333,289.5,828.4333Q286.4,828.5333,283.2,828.6333Q280.0,828.7333,277.1,828.9333Q275.9,829.1333,275.1,830.23334Q274.4,831.3333,274.4,832.9333Q274.5,836.1333,274.7,839.5333Q274.8,842.9333,275.0,846.1333Q275.2,849.6333,276.4,852.0333Q277.5,854.43335,279.2,855.5333Q280.2,856.93335,281.6,857.6333Q282.51,858.1233,283.56705,858.1233Q284.02002,858.1233,284.5,858.0333Q288.7,857.3333,292.9,856.93335Q297.1,856.6333,301.2,856.6333Q305.4,856.6333,309.6,857.0333Q313.7,857.3333,318.0,858.0333L317.9,858.0333Q318.4,858.11145,318.87314,858.11145Q321.42813,858.11145,323.2,855.8333Q325.2,853.1333,325.6,848.0333Q325.8,843.5333,326.0,839.1333Q326.2,834.73334,326.3,830.23334Q326.5,824.0333,323.1,821.9333Q322.2,820.4333,320.5,819.6333Q314.8,816.7333,309.1,813.73334Q303.5,810.73334,297.8,807.8333L303.1,807.8333Q304.7,807.8333,305.8,807.73334Q306.3,810.0333,308.1,810.73334Q308.5,811.5333,309.2,812.1333Q309.9,812.6333,310.8,812.6333Q313.9,812.6333,317.1,812.4333Q320.2,812.3333,323.30002,812.1333Q324.4,811.9333,325.3,810.8333Q326.2,809.73334,326.1,808.1333Q326.0,805.3333,325.9,802.23334Q325.8,799.1333,325.6,796.23334Q325.0,789.4333,321.5,787.23334Q319.73157,784.5386,317.11215,784.5386Q316.62103,784.5386,316.1,784.6333Q311.8,785.3333,307.5,785.73334Q303.3,786.0333,299.2,786.0333Q295.0,786.0333,290.9,785.6333Q286.8,785.3333,282.6,784.6333L282.7,784.6333Q282.15295,784.5274,281.63705,784.5274 Z M680.77655,784.52704Q679.975,784.52704,679.3,785.0333Q678.19995,785.9333,678.1,787.8333Q677.9,795.9333,677.7,804.1333Q677.60004,812.23334,677.60004,820.4333Q677.60004,828.2333,677.80005,836.73334Q677.9,845.1333,678.1,852.9333Q678.1,854.3333,678.69995,855.2333Q679.3,856.0333,680.2,856.23334Q680.69995,857.4333,681.7,857.9333Q682.10004,858.1111,682.55927,858.1111Q683.13336,858.1111,683.8,857.8333Q684.30005,857.5333,685.8,857.4333Q687.19995,857.3333,688.9,857.3333Q690.5,857.3333,692.0,857.4333Q693.4,857.5333,693.9,857.8333Q694.5125,858.1396,695.06757,858.1396Q695.78125,858.1396,696.4,857.6333Q697.5,856.73334,697.69995,854.7333Q697.9,846.73334,698.0,838.5333Q698.1,830.4333,698.1,822.3333Q698.1,814.4333,698.0,805.9333Q697.9,797.5333,697.69995,789.73334Q697.4,787.3333,695.6,786.6333Q695.1,785.3333,694.0,784.8333Q693.5417,784.625,693.03125,784.625Q692.3167,784.625,691.5,785.0333Q691.19995,785.23334,689.8,785.3333L686.69995,785.3333Q685.1,785.3333,683.7,785.1333Q682.30005,785.0333,682.1,784.8333Q681.39996,784.52704,680.77655,784.52704 Z M348.4,784.23334Q347.3,784.23334,346.3,785.0333Q345.4,785.8333,344.9,787.23334Q342.5,794.73334,340.0,802.73334Q337.6,810.6333,335.3,818.93335Q333.0,827.1333,331.0,835.5333Q329.0,843.8333,327.5,852.0333Q327.4,852.4333,327.4,852.8333Q327.4,853.23334,327.4,853.5333Q327.4,853.9333,327.3,854.23334Q327.3,855.5333,327.9,855.93335Q328.4,856.3333,329.1,856.3333Q329.2,858.0333,330.2,858.1333Q330.53342,858.1666,330.88904,858.1666Q331.6001,858.1666,332.4,858.0333Q338.5,857.0333,344.4,856.5333Q345.5,856.3333,346.4,855.3333Q347.2,854.43335,347.6,853.1333Q347.8,851.7333,348.1,850.43335Q348.4,849.23334,348.7,847.8333Q348.7,847.8333,348.5,847.5333Q350.5,847.4333,352.5,847.3333L356.4,847.3333Q358.0,847.3333,359.5,847.4333L362.5,847.4333Q362.7,848.3333,362.9,849.1333Q363.0,849.8333,363.2,850.73334Q363.8,853.6333,365.8,854.43335Q366.7,856.23334,368.3,856.5333Q374.1,857.0333,380.6,858.0333Q381.2,858.1333,381.75,858.1333Q382.3,858.1333,382.8,858.0333Q383.8,857.9333,383.8,856.0333Q383.7,855.73334,383.7,855.3333Q383.6,855.0333,383.6,854.6333Q383.6,854.23334,383.5,853.9333Q382.1,845.7333,380.1,837.3333Q378.1,829.0333,375.80002,820.7333Q373.5,812.5333,371.0,804.5333Q368.5,796.6333,366.1,789.1333Q365.8,788.23334,365.2,787.5333Q364.6,786.8333,363.9,786.4333Q363.3,785.4333,362.4,784.8333Q361.5,784.23334,360.7,784.23334Q359.1,784.3333,357.6,784.4333L354.6,784.4333Q353.0,784.4333,351.5,784.3333Q350.0,784.3333,348.4,784.23334 Z M468.80002,784.23334Q467.7,784.23334,466.7,785.0333Q465.80002,785.8333,465.3,787.23334Q462.90002,794.73334,460.40002,802.73334Q458.0,810.6333,455.7,818.93335Q453.40002,827.1333,451.40002,835.5333Q449.40002,843.8333,447.90002,852.0333Q447.80002,852.4333,447.80002,852.8333Q447.80002,853.23334,447.80002,853.5333Q447.80002,853.9333,447.7,854.23334Q447.7,855.5333,448.30002,855.93335Q448.80002,856.3333,449.5,856.3333Q449.6,858.0333,450.6,858.1333Q450.9334,858.1666,451.28903,858.1666Q452.0001,858.1666,452.8,858.0333Q458.90002,857.0333,464.80002,856.5333Q465.90002,856.3333,466.80002,855.3333Q467.6,854.43335,468.0,853.1333Q468.2,851.7333,468.5,850.43335Q468.80002,849.23334,469.10004,847.8333Q469.10004,847.8333,468.90002,847.5333Q470.90002,847.4333,472.90002,847.3333L476.8,847.3333Q478.40002,847.3333,479.90002,847.4333L482.90002,847.4333Q483.1,848.3333,483.30002,849.1333Q483.40002,849.8333,483.60004,850.73334Q484.2,853.6333,486.2,854.43335Q487.10004,856.23334,488.7,856.5333Q494.5,857.0333,501.0,858.0333Q501.6,858.1333,502.15002,858.1333Q502.7,858.1333,503.2,858.0333Q504.2,857.9333,504.2,856.0333Q504.1,855.73334,504.1,855.3333Q504.0,855.0333,504.0,854.6333Q504.0,854.23334,503.90002,853.9333Q502.50003,845.7333,500.5,837.3333Q498.5,829.0333,496.2,820.7333Q493.90002,812.5333,491.40002,804.5333Q488.90002,796.6333,486.5,789.1333Q486.2,788.23334,485.6,787.5333Q485.0,786.8333,484.30002,786.4333Q483.7,785.4333,482.80002,784.8333Q481.90002,784.23334,481.1,784.23334Q479.50003,784.3333,478.0,784.4333L475.0,784.4333Q473.40002,784.4333,471.90002,784.3333Q470.40002,784.3333,468.80002,784.23334 Z M509.7047,784.10254Q508.63077,784.10254,507.7,785.0333Q506.7,786.0333,506.59998,787.73334Q505.9,795.8333,505.59998,803.9333Q505.3,812.0333,505.3,820.1333Q505.3,828.2333,505.59998,836.4333Q505.9,844.5333,506.59998,852.5333Q506.59998,853.73334,507.3,854.7333Q507.9,855.6333,508.8,855.93335Q509.30002,857.0333,510.2,857.6333Q510.8,858.0833,511.45624,858.0833Q511.675,858.0833,511.9,858.0333Q514.8,857.4333,517.8,857.0333Q520.7,856.6333,523.5,856.43335Q524.7,856.23334,525.5,855.1333Q526.3,854.0333,526.3,852.4333Q526.1,849.23334,526.0,845.9333Q525.90015,842.73773,525.9,839.5421L525.9053,839.5421Q527.70264,842.53784,529.5,845.6333Q531.2,848.6333,532.9,851.7333Q533.6,853.0333,534.9,853.8333Q535.4,854.7333,536.30005,855.3333Q537.19995,855.93335,538.0,856.1333Q542.0,856.3333,545.9,856.8333Q549.80005,857.23334,553.9,858.0333Q554.0073,858.04865,554.111,858.06134L554.10547,858.06134Q554.24146,858.11743,554.4,858.1333Q554.7334,858.1666,555.08905,858.1666Q555.8001,858.1666,556.6,858.0333Q562.7,857.0333,568.6,856.5333Q569.7,856.3333,570.6,855.3333Q571.4,854.43335,571.80005,853.1333Q572.0,851.7333,572.3,850.43335Q572.6,849.23334,572.9,847.8333Q572.9,847.8333,572.69995,847.5333Q574.69995,847.4333,576.69995,847.3333L580.6,847.3333Q582.2,847.3333,583.7,847.4333L586.7,847.4333Q586.9,848.3333,587.1,849.1333Q587.19995,849.8333,587.4,850.73334Q588.0,853.6333,590.0,854.43335Q590.9,856.23334,592.5,856.5333Q598.3,857.0333,604.80005,858.0333Q605.4,858.1333,605.95,858.1333Q606.5,858.1333,607.0,858.0333Q608.0,857.9333,608.0,856.0333Q607.9,855.73334,607.9,855.3333Q607.8,855.0333,607.8,854.6333Q607.8,854.23334,607.7,853.9333Q606.3,845.7333,604.3,837.3333Q602.3,829.0333,600.0,820.7333Q597.69995,812.5333,595.2,804.5333Q592.7,796.6333,590.30005,789.1333Q590.0,788.23334,589.4,787.5333Q588.8,786.8333,588.1,786.4333Q587.5,785.4333,586.6,784.8333Q585.7,784.23334,584.9,784.23334Q583.3,784.3333,581.8,784.4333L578.80005,784.4333Q577.2,784.4333,575.69995,784.3333Q574.2,784.3333,572.6,784.23334Q571.5,784.23334,570.5,785.0333Q569.6,785.8333,569.1,787.23334Q566.7,794.73334,564.19995,802.73334Q561.8,810.6333,559.5,818.93335Q557.2,827.1333,555.2,835.5333Q553.9539,840.70465,552.90186,845.8372L552.90186,845.8372Q550.38617,840.7466,547.69995,836.1333Q543.2,828.2333,538.4,820.5333Q538.2,820.4333,538.2,820.23334Q538.2,820.0333,538.4,819.8333Q542.30005,813.1333,546.2,806.1333Q550.0,799.1333,553.5,791.1333Q554.2,789.4333,554.3,788.5333Q554.3,787.6333,552.4,786.7333Q552.4,786.0333,551.4,785.23334Q550.60004,784.5933,549.544,784.5933Q549.28,784.5933,549.0,784.6333Q541.4,785.9333,533.7,786.1333Q532.9,786.3333,531.9,787.0333Q530.9,787.6333,530.3,788.73334Q528.3,793.1333,526.1,797.4333Q526.1,796.0333,526.2,794.6333Q526.2,793.23334,526.3,791.6333Q526.3,790.23334,525.6,789.1333Q525.0,788.0333,524.0,787.73334Q523.2,786.0333,521.6,785.73334Q518.8,785.5333,515.9,785.1333Q513.0,784.73334,510.1,784.1333Q509.9,784.10254,509.7047,784.10254 Z"/>
</g>
</g>
</g>
</svg>